<svg width="87" height="87" viewBox="0 0 87 87" fill="none" xmlns="http://www.w3.org/2000/svg">
<g filter="url(#filter0_d_1_115)">
<rect x="15.5774" y="33.9165" width="39.9491" height="39.9491" rx="6.24205" transform="rotate(-34 15.5774 33.9165)" fill="#B8FF00"/>
<rect x="15.5774" y="33.9165" width="39.9491" height="39.9491" rx="6.24205" transform="rotate(-34 15.5774 33.9165)" fill="url(#paint0_radial_1_115)" fill-opacity="0.8"/>
<path fill-rule="evenodd" clip-rule="evenodd" d="M46.4616 27.7699L31.7709 37.6789C31.5628 37.8193 31.5031 38.1014 31.6389 38.3027L37.8685 47.5385L53.3183 37.1175L47.089 27.8804C46.9536 27.6798 46.669 27.63 46.4616 27.7699ZM54.6048 37.8201L37.2085 49.5541C37.6155 50.1574 37.8789 50.7617 38.4834 50.8695C38.7548 50.9176 39.0478 50.8639 39.2968 50.6959L55.7116 39.624C56.2088 39.2886 56.3507 38.6176 56.0263 38.1365L55.4351 37.2601L54.6048 37.8201Z" fill="#1E2A00"/>
</g>
<defs>
<filter id="filter0_d_1_115" x="0" y="0" width="86.6133" height="86.6132" filterUnits="userSpaceOnUse" color-interpolation-filters="sRGB">
<feFlood flood-opacity="0" result="BackgroundImageFix"/>
<feColorMatrix in="SourceAlpha" type="matrix" values="0 0 0 0 0 0 0 0 0 0 0 0 0 0 0 0 0 0 127 0" result="hardAlpha"/>
<feOffset dy="4"/>
<feGaussianBlur stdDeviation="9"/>
<feComposite in2="hardAlpha" operator="out"/>
<feColorMatrix type="matrix" values="0 0 0 0 0 0 0 0 0 0 0 0 0 0 0 0 0 0 0.19 0"/>
<feBlend mode="normal" in2="BackgroundImageFix" result="effect1_dropShadow_1_115"/>
<feBlend mode="normal" in="SourceGraphic" in2="effect1_dropShadow_1_115" result="shape"/>
</filter>
<radialGradient id="paint0_radial_1_115" cx="0" cy="0" r="1" gradientUnits="userSpaceOnUse" gradientTransform="translate(40.4493 48.8014) rotate(132.769) scale(34.012)">
<stop stop-color="white" stop-opacity="0"/>
<stop offset="1" stop-color="white"/>
</radialGradient>
</defs>
</svg>
