<svg width="13" height="19" viewBox="0 0 13 19" fill="none" xmlns="http://www.w3.org/2000/svg">
<path d="M12.5922 6.59136C12.4972 6.43126 12.3249 6.33319 12.1386 6.33319L7.59261 6.33319L9.47282 0.694664C9.52618 0.533855 9.49897 0.356968 9.39983 0.219479C9.3007 0.0818184 9.14148 0.000176541 8.97184 1.0863e-07L3.69432 4.47306e-08C3.46124 0.000176743 3.25607 0.153033 3.18909 0.376221L0.0224021 10.9317L0.0224021 10.9319C-0.0256638 11.0915 0.00455357 11.2646 0.104043 11.3986C0.203708 11.5323 0.360808 11.6113 0.527625 11.6112L5.27766 11.6112L5.27766 18.472C5.27749 18.7134 5.44095 18.924 5.67473 18.9836C5.90853 19.0432 6.15291 18.9366 6.26831 18.7247L12.6017 7.11338C12.6915 6.95009 12.6879 6.75129 12.5923 6.59119L12.5922 6.59136Z" fill="black"/>
</svg>
