<svg width="24" height="26" viewBox="0 0 24 26" fill="none" xmlns="http://www.w3.org/2000/svg">
<path d="M6.9512 21.433C6.15202 20.0244 5.72936 18.2979 5.72936 16.4285C5.72936 13.2869 8.49669 10.7295 11.8915 10.7295C15.2929 10.7295 18.0536 13.2869 18.0536 16.4285C18.0536 16.7855 18.3508 17.0776 18.7141 17.0776C19.0774 17.0776 19.3746 16.7855 19.3746 16.4285C19.3746 12.5664 16.0194 9.43126 11.8915 9.43126C7.7637 9.43126 4.4084 12.5729 4.4084 16.4285C4.4084 18.5187 4.89056 20.4724 5.80199 22.0691C6.69362 23.6335 7.31447 24.3539 8.45706 25.4898C8.58913 25.6196 8.75427 25.6846 8.92595 25.6846C9.0911 25.6846 9.26276 25.6261 9.38171 25.4898C9.64587 25.2432 9.64587 24.8278 9.3883 24.5746C8.37118 23.5685 7.8032 22.9259 6.9512 21.433ZM4.54709 3.1286C6.81251 1.91479 9.28261 1.29816 11.9047 1.29816C14.5333 1.29816 16.7326 1.84991 19.2623 3.13512C19.3613 3.18058 19.4604 3.2065 19.5661 3.2065C19.8039 3.2065 20.035 3.0767 20.1539 2.85599C20.319 2.53791 20.1935 2.142 19.8699 1.97971C17.1752 0.610168 14.7182 0 11.9047 0C9.06466 0 6.3766 0.668586 3.91305 1.98623C3.58941 2.16148 3.47714 2.55094 3.64884 2.86901C3.82717 3.18703 4.22344 3.29742 4.54709 3.1286Z" fill="url(#paint0_linear_1_57)"/>
<path d="M11.8407 6.26949C7.58071 6.26949 3.684 8.6127 1.92056 12.2347C1.31952 13.4614 1.01575 14.8765 1.01575 16.4342C1.01575 18.1869 1.33277 19.8615 1.98 21.5686C2.11207 21.9061 2.48854 22.0748 2.832 21.9516C3.17546 21.8217 3.34716 21.4518 3.22165 21.1142C2.43566 19.0437 2.34322 17.4469 2.34322 16.4342C2.34322 15.0712 2.6008 13.8444 3.11596 12.7928C4.66145 9.6123 8.08924 7.56121 11.8473 7.56121C17.1244 7.56121 21.4174 11.5402 21.4174 16.4342C21.4174 17.8298 20.1822 18.9592 18.6698 18.9592C17.1574 18.9592 15.9224 17.8233 15.9224 16.4342C15.9224 14.3247 14.0995 12.6111 11.8539 12.6111C9.60827 12.6111 7.78541 14.3247 7.78541 16.4342C7.78541 18.9982 8.80252 21.4063 10.6452 23.2109C12.0718 24.6063 13.4457 25.3723 15.5525 25.937C15.6052 25.9565 15.6647 25.963 15.7242 25.963C16.0147 25.963 16.279 25.7748 16.3582 25.4891C16.4573 25.1451 16.2459 24.7881 15.8959 24.6907C14.0334 24.1909 12.8181 23.5159 11.5698 22.2956C9.97811 20.7378 9.09971 18.6542 9.09971 16.4408C9.09971 15.0453 10.3348 13.9158 11.8472 13.9158C13.3596 13.9158 14.5947 15.0517 14.5947 16.4408C14.5947 18.5503 16.4242 20.2639 18.6632 20.2639C20.9022 20.2639 22.7316 18.5503 22.7316 16.4408C22.7317 10.8327 17.8443 6.26949 11.8407 6.26949Z" fill="url(#paint1_linear_1_57)"/>
<path d="M23.6601 8.95572C22.3458 7.15128 20.6814 5.73622 18.7067 4.73666C14.5457 2.63359 9.23562 2.6401 5.08131 4.74962C3.09992 5.75569 1.42893 7.18372 0.121209 9.00122C-0.0901182 9.29329 -0.0174881 9.6957 0.279721 9.90343C0.398603 9.9813 0.530676 10.0203 0.66281 10.0203C0.867574 10.0203 1.07227 9.92942 1.20441 9.75415C2.38662 8.1055 3.8991 6.81379 5.68898 5.90508C9.47342 3.98379 14.3147 3.97728 18.1057 5.89212C19.8889 6.78787 21.3947 8.07308 22.5836 9.70883C22.7949 10.0009 23.211 10.0658 23.5082 9.85802C23.8055 9.6502 23.8715 9.24779 23.6601 8.95572ZM19.7701 21.8597C19.2417 21.9505 18.7067 21.9831 18.3897 21.9831C17.0688 21.9831 15.9724 21.678 15.0412 21.0549C13.4362 19.9839 12.4785 18.2573 12.4785 16.4333C12.4785 16.0763 12.1813 15.7842 11.818 15.7842C11.4548 15.7842 11.1576 16.0763 11.1576 16.4333C11.1576 18.6921 12.3332 20.8212 14.2947 22.1323C15.4374 22.8918 16.8177 23.2812 18.3896 23.2812C18.5745 23.2812 19.2284 23.2747 20.0012 23.1384C20.3579 23.0734 20.6022 22.7359 20.5362 22.3855C20.47 22.035 20.1266 21.7949 19.7701 21.8597Z" fill="url(#paint2_linear_1_57)"/>
<defs>
<linearGradient id="paint0_linear_1_57" x1="9.72966" y1="9.73612" x2="31.9119" y2="42.7171" gradientUnits="userSpaceOnUse">
<stop/>
<stop offset="1" stop-opacity="0"/>
</linearGradient>
<linearGradient id="paint1_linear_1_57" x1="9.72966" y1="9.73612" x2="31.9119" y2="42.7171" gradientUnits="userSpaceOnUse">
<stop/>
<stop offset="1" stop-opacity="0"/>
</linearGradient>
<linearGradient id="paint2_linear_1_57" x1="9.72966" y1="9.73612" x2="31.9119" y2="42.7171" gradientUnits="userSpaceOnUse">
<stop/>
<stop offset="1" stop-opacity="0"/>
</linearGradient>
</defs>
</svg>
