<svg width="14" height="20" viewBox="0 0 14 20" fill="none" xmlns="http://www.w3.org/2000/svg">
<path d="M11.4522 7.657C10.8824 7.18847 10.3385 6.68659 9.88852 6.10316C7.32892 2.78488 8.65507 1.04795e-07 8.65507 1.04795e-07C3.90327 1.98489 2.82105 5.1355 2.76965 7.48178L2.77217 7.50668C2.77217 7.50668 2.81508 8.89558 3.44982 10.4019C3.65245 10.8825 3.32039 11.4226 2.80223 11.4973C2.44149 11.5493 2.09177 11.3581 1.93939 11.0285C1.66677 10.4391 1.30672 9.50186 1.41022 8.84076C0.627238 9.87352 0.120091 11.1382 0.0179731 12.5421C-0.233535 16.0041 2.18103 19.1705 5.59888 19.8585C9.60443 20.6651 13.3972 17.9321 13.9361 13.9658C14.2727 11.4881 13.2561 9.14001 11.4522 7.657Z" fill="black"/>
</svg>
