<svg width="29" height="29" viewBox="0 0 29 29" fill="none" xmlns="http://www.w3.org/2000/svg">
<rect width="29" height="29" rx="4" fill="#ACE715"/>
<path d="M12.7809 20.5287C13.3225 20.5287 13.7616 20.0896 13.7616 19.548C13.7616 19.0064 13.3225 18.5674 12.7809 18.5674C12.2393 18.5674 11.8003 19.0064 11.8003 19.548C11.8003 20.0896 12.2393 20.5287 12.7809 20.5287Z" fill="white"/>
<path d="M16.4826 20.5287C17.0242 20.5287 17.4633 20.0896 17.4633 19.548C17.4633 19.0064 17.0242 18.5674 16.4826 18.5674C15.941 18.5674 15.502 19.0064 15.502 19.548C15.502 20.0896 15.941 20.5287 16.4826 20.5287Z" fill="white"/>
<path d="M18.1252 16.0666C18.2478 16.0666 18.3459 15.993 18.3704 15.8949L19.7678 10.9426C19.8169 10.8201 19.7433 10.673 19.5962 10.6485C19.5717 10.6485 19.5472 10.6485 19.5227 10.6485H10.6968C10.6968 10.6239 10.6968 10.5994 10.6723 10.5994L10.2065 9.32457C10.1574 9.15296 10.0103 9.05489 9.86324 9.00586H8.46581C8.19613 9.03038 8 9.25102 8 9.49619C8 9.76587 8.19613 9.962 8.46581 9.98651H9.44646L9.69163 10.5994L11.1626 15.8704C11.1626 15.9195 11.1871 15.944 11.2116 15.9685L10.6232 17.3904C10.5252 17.6111 10.6478 17.8808 10.8684 17.9788H10.8929C10.942 18.0033 11.0155 18.0279 11.0891 18.0279H17.9536C18.2233 18.0279 18.4439 17.8072 18.4439 17.5375C18.4439 17.2679 18.2233 17.0472 17.9536 17.0472H11.751L12.1678 16.0666H18.1252Z" fill="white"/>
</svg>
