<svg width="29" height="29" viewBox="0 0 29 29" fill="none" xmlns="http://www.w3.org/2000/svg">
<rect width="29" height="29" rx="4" fill="#ACE715"/>
<path d="M18.9472 12.6873C18.8796 12.5735 18.7572 12.5038 18.6249 12.5038L15.3948 12.5038L16.7307 8.49749C16.7686 8.38323 16.7493 8.25754 16.6789 8.15985C16.6084 8.06204 16.4953 8.00403 16.3748 8.00391L12.6249 8.00391C12.4593 8.00403 12.3135 8.11264 12.2659 8.27122L10.0159 15.7712L10.0159 15.7713C9.98177 15.8847 10.0032 16.0078 10.0739 16.1029C10.1447 16.198 10.2564 16.2541 10.3749 16.254L13.7499 16.254L13.7499 21.1288C13.7498 21.3003 13.866 21.45 14.0321 21.4923C14.1982 21.5346 14.3718 21.4589 14.4538 21.3084L18.9539 13.0582C19.0177 12.9422 19.0151 12.8009 18.9472 12.6871L18.9472 12.6873Z" fill="white"/>
</svg>
