<svg width="29" height="29" viewBox="0 0 29 29" fill="none" xmlns="http://www.w3.org/2000/svg">
<rect width="29" height="29" rx="4" fill="#ACE715"/>
<path d="M17.5912 13.1025C17.2135 12.7906 16.853 12.4564 16.5547 12.0679C14.858 9.8583 15.7371 8.00391 15.7371 8.00391C12.5873 9.32561 11.87 11.4235 11.8359 12.9859L11.8376 13.0025C11.8376 13.0025 11.866 13.9273 12.2867 14.9303C12.4211 15.2504 12.201 15.6099 11.8575 15.6597C11.6184 15.6944 11.3865 15.5671 11.2855 15.3476C11.1048 14.9551 10.8662 14.331 10.9348 13.8908C10.4158 14.5785 10.0796 15.4206 10.0119 16.3554C9.8452 18.6607 11.4457 20.7691 13.7113 21.2273C16.3664 21.7644 18.8805 19.9445 19.2376 17.3034C19.4608 15.6536 18.7869 14.09 17.5912 13.1025Z" fill="white"/>
</svg>
