<svg width="29" height="29" viewBox="0 0 29 29" fill="none" xmlns="http://www.w3.org/2000/svg">
<rect width="29" height="29" rx="4" fill="#ACE715"/>
<path d="M14.7256 16.5527C14.6118 16.5527 14.4979 16.5364 14.3841 16.4876L9.9436 14.9424V17.7563C9.9436 17.8539 9.97613 17.9515 10.0575 18.0003C10.1225 18.0653 11.7165 19.4479 14.7256 19.4479C17.7347 19.4479 19.3288 18.0653 19.3938 18.0003C19.4589 17.9352 19.5077 17.8376 19.5077 17.7563V14.9424L15.0672 16.4876C14.9534 16.5201 14.8395 16.5527 14.7256 16.5527Z" fill="white"/>
<path d="M22.2082 12.5839L14.8562 10.0303C14.7749 9.99773 14.6936 9.99773 14.6122 10.0303L7.24398 12.5839C6.91867 12.6978 6.91867 13.1695 7.24398 13.2996L14.596 15.8533C14.6773 15.8858 14.7586 15.8858 14.8399 15.8533L20.9069 13.7388V15.3491L20.5166 15.6093C20.4352 15.6744 20.3702 15.772 20.3702 15.8858V16.7641C20.3702 16.9431 20.5166 17.0895 20.6955 17.0895H21.769C21.9479 17.0895 22.0943 16.9431 22.0943 16.7641V15.8858C22.0943 15.772 22.0455 15.6744 21.9479 15.6093L21.5576 15.3491V13.5111L22.1757 13.2996C22.5335 13.1695 22.5335 12.6978 22.2082 12.5839Z" fill="white"/>
</svg>
