<svg width="29" height="29" viewBox="0 0 29 29" fill="none" xmlns="http://www.w3.org/2000/svg">
<rect width="29" height="29" rx="4" fill="#ACE715"/>
<path d="M17.42 9.01838C16.657 8.95453 15.8588 9.1631 15.2688 9.66326C14.9234 9.95537 14.767 10.223 14.642 10.348C14.4999 10.1799 14.3738 9.99846 14.2184 9.84149C13.5262 9.14341 12.4019 8.81404 11.3197 9.11627C9.68735 9.57174 8.23206 11.5665 9.45429 13.988C10.5993 16.2515 13.8274 18.3675 14.3542 18.7864C14.4516 18.8582 14.5458 18.9354 14.6464 19.0029C16.066 17.8925 20.032 15.3545 20.2682 12.4536C20.4103 10.8068 19.1215 9.16045 17.42 9.01838Z" fill="white"/>
</svg>
