<svg width="29" height="29" viewBox="0 0 29 29" fill="none" xmlns="http://www.w3.org/2000/svg">
<rect width="29" height="29" rx="4" fill="#ACE715"/>
<path d="M14 8C11.2414 8 9 10.0813 9 12.6429C9 15.1245 13.5514 20.456 13.7414 20.6798L14.0175 21L14.2936 20.6798C14.4654 20.4559 19 15.1245 19 12.6429C19 10.0813 16.7586 8 14 8ZM14 15.1081C12.5345 15.1081 11.3619 14.0037 11.3619 12.6584C11.3619 11.3139 12.5344 10.1932 14 10.1932C15.4655 10.1932 16.6381 11.2983 16.6381 12.6429C16.6381 13.9876 15.4655 15.1081 14 15.1081Z" fill="white"/>
</svg>
