<svg width="29" height="29" viewBox="0 0 29 29" fill="none" xmlns="http://www.w3.org/2000/svg">
<rect width="29" height="29" rx="4" fill="#ACE715"/>
<path d="M19.8487 20.4165L18.1873 19.9719L17.7427 21.6333C17.7273 21.6894 17.6957 21.7397 17.6519 21.7779C17.608 21.8161 17.5539 21.8405 17.4962 21.8481C17.4386 21.8556 17.38 21.846 17.3278 21.8204C17.2755 21.7948 17.2321 21.7543 17.2028 21.7041L15.2491 18.3197C15.2092 18.2489 15.1845 18.1705 15.1765 18.0896C15.1686 18.0087 15.1776 17.927 15.2029 17.8498C15.2282 17.7725 15.2693 17.7014 15.3236 17.6408C15.3779 17.5803 15.4442 17.5318 15.5183 17.4983C15.7999 17.3647 16.048 17.1697 16.2444 16.9276C16.389 16.7491 16.552 16.8183 16.7659 16.8183C17.0601 16.8188 17.3511 16.7569 17.6196 16.6368C17.7542 16.5725 17.908 16.5612 18.0505 16.6051C18.193 16.649 18.3138 16.7449 18.3888 16.8737L20.1794 19.9842C20.2082 20.0347 20.2215 20.0925 20.2176 20.1505C20.2137 20.2084 20.1928 20.2639 20.1575 20.3101C20.1222 20.3562 20.074 20.3909 20.0191 20.4098C19.9642 20.4288 19.9049 20.4311 19.8487 20.4165ZM13.6954 17.4937C13.4158 17.3609 13.1694 17.1675 12.9739 16.9276C12.8324 16.7506 12.6662 16.8183 12.4524 16.8183C12.1582 16.8188 11.8672 16.7569 11.5986 16.6368C11.4641 16.5725 11.3103 16.5612 11.1678 16.6051C11.0253 16.649 10.9045 16.7449 10.8294 16.8737L9.03883 19.9842C9.01004 20.0347 8.99676 20.0925 9.00067 20.1505C9.00457 20.2084 9.02549 20.2639 9.06079 20.3101C9.09609 20.3562 9.14421 20.3909 9.19913 20.4098C9.25406 20.4288 9.31334 20.4311 9.36957 20.4165L11.031 19.9719L11.4755 21.6333C11.4909 21.6894 11.5225 21.7397 11.5664 21.7779C11.6102 21.8161 11.6644 21.8405 11.722 21.8481C11.7797 21.8556 11.8383 21.846 11.8905 21.8204C11.9427 21.7948 11.9862 21.7543 12.0155 21.7041L13.9692 18.3197C14.0088 18.249 14.0333 18.1707 14.0411 18.09C14.0489 18.0092 14.0399 17.9277 14.0146 17.8507C13.9893 17.7736 13.9482 17.7026 13.8941 17.6422C13.8399 17.5818 13.7738 17.5333 13.7 17.4998L13.6954 17.4937ZM13.4292 16.5491C13.3323 16.4289 13.2067 16.3349 13.064 16.2757C12.9212 16.2166 12.766 16.1942 12.6124 16.2107C12.389 16.2341 12.1632 16.2074 11.9514 16.1324C11.7397 16.0574 11.5474 15.9362 11.3885 15.7774C11.2296 15.6186 11.1081 15.4264 11.033 15.2148C10.9578 15.0031 10.9308 14.7773 10.9541 14.5539C10.9702 14.4006 10.9477 14.2456 10.8886 14.1032C10.8295 13.9607 10.7356 13.8354 10.6156 13.7386C10.4399 13.5976 10.298 13.4191 10.2003 13.2161C10.1026 13.0131 10.0516 12.7908 10.051 12.5655C10.0504 12.3403 10.1003 12.1177 10.1969 11.9142C10.2935 11.7107 10.4345 11.5315 10.6095 11.3896C10.7295 11.2927 10.8234 11.1674 10.8825 11.025C10.9416 10.8826 10.9641 10.7276 10.9479 10.5742C10.9227 10.349 10.9485 10.1209 11.0235 9.90704C11.0985 9.69314 11.2207 9.49887 11.381 9.33867C11.5414 9.17847 11.7357 9.05645 11.9497 8.98166C12.1637 8.90688 12.3918 8.88125 12.617 8.90669C12.7706 8.92314 12.9259 8.90078 13.0686 8.84165C13.2113 8.78252 13.3369 8.68852 13.4338 8.56826C13.5751 8.39213 13.7541 8.24998 13.9577 8.1523C14.1612 8.05462 14.3841 8.00391 14.6099 8.00391C14.8357 8.00391 15.0586 8.05462 15.2621 8.1523C15.4657 8.24998 15.6447 8.39213 15.786 8.56826C15.8829 8.68852 16.0085 8.78252 16.1512 8.84165C16.2939 8.90078 16.4492 8.92314 16.6028 8.90669C16.827 8.88263 17.0538 8.90911 17.2664 8.98419C17.479 9.05928 17.6721 9.18105 17.8315 9.34057C17.9908 9.50009 18.1124 9.6933 18.1873 9.90599C18.2622 10.1187 18.2885 10.3455 18.2642 10.5696C18.2479 10.7243 18.271 10.8805 18.3312 11.0238C18.3915 11.1672 18.4869 11.293 18.6088 11.3896C18.7847 11.531 18.9266 11.7101 19.0241 11.9136C19.1216 12.1171 19.1722 12.3399 19.1722 12.5656C19.1722 12.7913 19.1216 13.0141 19.0241 13.2176C18.9266 13.4212 18.7847 13.6002 18.6088 13.7417C18.4888 13.8385 18.3949 13.9638 18.3358 14.1062C18.2767 14.2487 18.2542 14.4036 18.2704 14.557C18.2941 14.7815 18.2671 15.0085 18.1915 15.2212C18.1158 15.434 17.9934 15.627 17.8333 15.7862C17.6731 15.9453 17.4792 16.0665 17.266 16.1407C17.0528 16.215 16.8256 16.2405 16.6013 16.2153C16.4477 16.1989 16.2924 16.2212 16.1497 16.2803C16.007 16.3395 15.8814 16.4335 15.7844 16.5537C15.6431 16.7296 15.4642 16.8715 15.2608 16.969C15.0574 17.0665 14.8347 17.1171 14.6091 17.1171C14.3836 17.1171 14.1609 17.0665 13.9575 16.969C13.754 16.8715 13.5751 16.7296 13.4338 16.5537L13.4292 16.5491ZM14.6091 14.5462C15.0016 14.5462 15.3853 14.4298 15.7116 14.2118C16.038 13.9937 16.2923 13.6838 16.4425 13.3212C16.5927 12.9586 16.632 12.5596 16.5554 12.1746C16.4789 11.7897 16.2899 11.4361 16.0123 11.1586C15.7348 10.881 15.3812 10.692 14.9963 10.6155C14.6113 10.5389 14.2123 10.5782 13.8497 10.7284C13.4871 10.8786 13.1772 11.1329 12.9591 11.4593C12.7411 11.7856 12.6247 12.1693 12.6247 12.5618C12.6251 13.088 12.8343 13.5925 13.2064 13.9645C13.5784 14.3366 14.0829 14.5458 14.6091 14.5462Z" fill="white"/>
</svg>
