<svg width="29" height="29" viewBox="0 0 29 29" fill="none" xmlns="http://www.w3.org/2000/svg">
<rect width="29" height="29" rx="4" fill="#ACE715"/>
<path d="M11.0729 11.9267C11.0729 10.3129 12.3857 9 13.9995 9C15.6134 9 16.9262 10.3128 16.9262 11.9267C16.9262 13.5405 15.6134 14.8533 13.9995 14.8533C12.3857 14.8533 11.0729 13.5405 11.0729 11.9267ZM13.9995 15.2714C11.3875 15.2714 9.24007 17.2308 9.00326 19.8277C8.98288 20.0529 9.05866 20.2782 9.21127 20.4449C9.36283 20.6111 9.57867 20.7062 9.80392 20.7062H18.1962C18.4209 20.7062 18.6368 20.6111 18.7889 20.4449C18.9415 20.2782 19.0167 20.0529 18.9969 19.8277C18.7601 17.2303 16.6122 15.2714 14.0006 15.2714H13.9995Z" fill="white"/>
</svg>
