<svg width="20" height="14" viewBox="0 0 20 14" fill="none" xmlns="http://www.w3.org/2000/svg">
<path fill-rule="evenodd" clip-rule="evenodd" d="M0.893863 0.359345C1.23477 0.126874 1.64093 0 2.06084 0H17.174C17.594 0 18.0001 0.126881 18.341 0.359345L10.0588 7.25784C9.80372 7.47073 9.43105 7.47073 9.17602 7.25784L0.893863 0.359345ZM19.1508 1.4638C19.2058 1.65029 19.235 1.8453 19.235 2.04372V11.5811C19.235 12.1235 19.0177 12.6429 18.6313 13.0261C18.2449 13.4093 17.7211 13.6248 17.1741 13.6248H2.06089C1.51389 13.6248 0.990084 13.4093 0.60367 13.0261C0.217256 12.6429 0 12.1235 0 11.5811V2.04372C0 1.8453 0.0291953 1.6503 0.0841524 1.4638L8.29166 8.30082C9.05849 8.93949 10.1765 8.93949 10.9432 8.30082L19.1508 1.4638Z" fill="#4BB2E5"/>
</svg>
