<svg width="17" height="17" viewBox="0 0 17 17" fill="none" xmlns="http://www.w3.org/2000/svg">
<path d="M11.4818 15.9955C10.3306 15.8366 9.23627 15.4172 8.29076 14.7727C7.19504 14.0466 6.1885 13.2058 5.29009 12.2661C4.18653 11.1442 3.06276 10.0368 2.08893 8.79956C1.32234 7.80591 0.636616 6.76418 0.262586 5.567C0.00248644 4.80583 -0.0656196 3.99712 0.0637769 3.20628C0.232259 2.26232 0.757923 1.49464 1.47734 0.851978C1.77406 0.599566 2.0963 0.375706 2.43937 0.18367C2.64361 0.0602497 2.88139 -0.0035502 3.12332 0.00015249C3.36526 0.00385518 3.60075 0.0748982 3.80071 0.204504C4.75862 0.746743 5.49281 1.58425 5.88146 2.57804C5.94809 2.71805 5.97402 2.8725 5.95654 3.02528C5.93905 3.17807 5.8788 3.32359 5.78206 3.44668C5.54113 3.75599 5.29009 4.05729 5.04748 4.36661C4.8335 4.64066 4.61111 4.90991 4.42072 5.19839C4.32272 5.32982 4.27078 5.4873 4.27229 5.64843C4.27381 5.80956 4.32869 5.96613 4.42915 6.09587C4.90932 6.73694 5.37433 7.39723 5.89663 8.00784C6.84165 9.12063 7.88805 10.1519 9.02365 11.0898C9.27637 11.2965 9.54763 11.4792 9.8172 11.6667C9.93203 11.7516 10.0701 11.8034 10.2149 11.8159C10.3598 11.8284 10.5053 11.8011 10.6343 11.7372C10.9232 11.6018 11.2044 11.452 11.4768 11.2885C11.8542 11.0593 12.2248 10.8237 12.5955 10.5977C12.7483 10.5047 12.9251 10.4537 13.1065 10.4503C13.2879 10.4469 13.4667 10.4913 13.6232 10.5785C14.5791 11.0297 15.3584 11.7597 15.8472 12.662C15.9846 12.8873 16.0466 13.1471 16.0249 13.4068C16.0032 13.6664 15.8989 13.9137 15.7259 14.1156C14.7942 15.2791 13.603 15.9971 12.0193 16.0291C11.8396 16.0267 11.6602 16.0154 11.4818 15.9955Z" fill="#4BB2E5"/>
</svg>
