<svg width="13" height="13" viewBox="0 0 13 13" fill="none" xmlns="http://www.w3.org/2000/svg">
<path d="M12.8666 10.924C12.1303 12.6898 10.4037 12.9993 9.83952 12.9993C9.67384 12.9993 7.09363 13.1361 3.38459 9.61698C0.399654 6.78485 0.0349333 3.73933 0.00315556 3.16068C-0.0277555 2.59706 0.133589 1.18317 2.0781 0.132641C2.31903 0.00246333 2.79671 -0.0551847 2.92006 0.0682024C2.97481 0.122961 4.60688 2.8093 4.64978 2.8983C4.69268 2.98716 4.7142 3.07472 4.7142 3.16054C4.7142 3.2832 4.62681 3.43664 4.45189 3.62071C4.27711 3.80478 4.08703 3.97353 3.88148 4.12683C3.67594 4.28027 3.48585 4.44281 3.31093 4.6146C3.13615 4.78624 3.04876 4.92755 3.04876 5.03793C3.06061 5.32444 3.29533 6.35069 5.0834 7.92221C6.87177 9.49417 7.73323 9.937 7.816 9.96763C7.89891 9.99826 7.96781 10.0134 8.02299 10.0134C8.13348 10.0134 8.27461 9.92617 8.44635 9.75135C8.61795 9.57638 9.19529 8.78491 9.37932 8.60994C9.56334 8.43526 9.71674 8.34785 9.83952 8.34785C9.92532 8.34785 10.0127 8.36924 10.1015 8.41215C10.1905 8.45506 12.8796 10.029 12.9311 10.0816C13.0706 10.2247 12.9721 10.6711 12.8666 10.924Z" fill="#32B748"/>
</svg>
