<svg width="94" height="94" viewBox="0 0 94 94" fill="none" xmlns="http://www.w3.org/2000/svg">
<g filter="url(#filter0_d_1_123)">
<rect x="33.0222" y="11.3306" width="45" height="45" rx="7.03125" transform="rotate(19 33.0222 11.3306)" fill="#B8FF00"/>
<rect x="33.0222" y="11.3306" width="45" height="45" rx="7.03125" transform="rotate(19 33.0222 11.3306)" fill="url(#paint0_radial_1_123)" fill-opacity="0.8"/>
<path d="M47.777 34.4669L46.1342 39.2381L47.9749 39.872C48.8848 40.1852 49.6511 40.2164 50.274 39.9654C50.9063 39.7098 51.3524 39.2047 51.6123 38.45C51.8697 37.7024 51.8302 37.038 51.4939 36.4568C51.16 35.8684 50.5417 35.4189 49.639 35.108L47.777 34.4669ZM48.2343 46.5762L44.0979 45.1519L43.3948 47.1937L40.1999 46.0936L40.9029 44.0518L38.9881 43.3925L39.6656 41.4248L41.5805 42.0841L42.1196 40.5184L40.2048 39.859L41.0098 37.521L42.9247 38.1804L45.4563 30.8278L51.4653 32.8969C52.9817 33.419 54.0487 34.2952 54.6664 35.5256C55.2912 36.7584 55.3558 38.0942 54.8604 39.533C54.3723 40.9506 53.485 41.9467 52.1984 42.5214C50.9118 43.0961 49.4928 43.1163 47.9411 42.582L45.2963 41.6714L44.7754 43.1842L48.9119 44.6085L48.2343 46.5762Z" fill="#1E2A00"/>
</g>
<defs>
<filter id="filter0_d_1_123" x="0.000101089" y="2.09808e-05" width="93.9422" height="93.9421" filterUnits="userSpaceOnUse" color-interpolation-filters="sRGB">
<feFlood flood-opacity="0" result="BackgroundImageFix"/>
<feColorMatrix in="SourceAlpha" type="matrix" values="0 0 0 0 0 0 0 0 0 0 0 0 0 0 0 0 0 0 127 0" result="hardAlpha"/>
<feOffset dy="7.04106"/>
<feGaussianBlur stdDeviation="10.1379"/>
<feComposite in2="hardAlpha" operator="out"/>
<feColorMatrix type="matrix" values="0 0 0 0 0 0 0 0 0 0 0 0 0 0 0 0 0 0 0.19 0"/>
<feBlend mode="normal" in2="BackgroundImageFix" result="effect1_dropShadow_1_123"/>
<feBlend mode="normal" in="SourceGraphic" in2="effect1_dropShadow_1_123" result="shape"/>
</filter>
<radialGradient id="paint0_radial_1_123" cx="0" cy="0" r="1" gradientUnits="userSpaceOnUse" gradientTransform="translate(61.0387 28.0974) rotate(132.769) scale(38.3122)">
<stop stop-color="white" stop-opacity="0"/>
<stop offset="1" stop-color="white"/>
</radialGradient>
</defs>
</svg>
