<svg width="20" height="20" viewBox="0 0 20 20" fill="none" xmlns="http://www.w3.org/2000/svg">
<path fill-rule="evenodd" clip-rule="evenodd" d="M9.61749 0C4.30589 0 0 4.30589 0 9.61749C0 11.1112 0.341031 12.5273 0.950129 13.7903L0.162639 17.6275C-0.0134546 18.4856 0.736256 19.2485 1.59724 19.0874L5.56985 18.344C6.80104 18.9161 8.17299 19.235 9.61749 19.235C14.9291 19.235 19.235 14.9291 19.235 9.61749C19.235 4.30589 14.9291 0 9.61749 0ZM4.93204 7.64467C4.93204 7.23609 5.26327 6.90486 5.67185 6.90486H11.5903C11.9989 6.90486 12.3301 7.23609 12.3301 7.64467C12.3301 8.05324 11.9989 8.38447 11.5903 8.38447H5.67185C5.26327 8.38447 4.93204 8.05324 4.93204 7.64467ZM5.67185 10.8505C5.26327 10.8505 4.93204 11.1817 4.93204 11.5903C4.93204 11.9989 5.26327 12.3301 5.67185 12.3301H13.5631C13.9717 12.3301 14.3029 11.9989 14.3029 11.5903C14.3029 11.1817 13.9717 10.8505 13.5631 10.8505H5.67185Z" fill="#4BB2E5"/>
</svg>
