<svg width="87" height="87" viewBox="0 0 87 87" fill="none" xmlns="http://www.w3.org/2000/svg">
<g filter="url(#filter0_d_1_112)">
<rect x="15.5549" y="34.3463" width="39.9491" height="39.9491" rx="6.24205" transform="rotate(-34.7858 15.5549 34.3463)" fill="#B8FF00"/>
<rect x="15.5549" y="34.3463" width="39.9491" height="39.9491" rx="6.24205" transform="rotate(-34.7858 15.5549 34.3463)" fill="url(#paint0_radial_1_112)" fill-opacity="0.8"/>
<path d="M47.8586 44.2462L51.9897 43.8162L51.9887 43.816C52.3447 43.765 52.6396 43.5158 52.7503 43.1743C52.8601 42.8327 52.7669 42.458 52.5088 42.208L49.5201 39.1231C49.2994 38.895 49.1991 38.5764 49.2503 38.2634L49.9616 34.1281L49.962 34.1287C50.0228 33.7707 49.8821 33.4085 49.5956 33.1851C49.3097 32.9613 48.9242 32.9133 48.5919 33.0597L44.896 34.8625C44.6155 34.9976 44.2857 34.9844 44.0166 34.8265L40.3147 32.6927C40.0066 32.5057 39.617 32.5169 39.3214 32.7222C39.0252 32.928 38.8787 33.2892 38.9464 33.6432L39.6603 37.8526C39.7143 38.1599 39.6116 38.4736 39.3871 38.6892L36.3976 41.5211L36.397 41.5215C36.1444 41.7815 36.0548 42.1595 36.1641 42.5059C36.2735 42.8524 36.5643 43.1103 36.9205 43.1786L41.044 43.9554C41.3551 44.0166 41.6187 44.2218 41.7551 44.5077L43.6027 48.3852C43.7469 48.7143 44.066 48.933 44.4246 48.9484C44.7836 48.9644 45.1197 48.7745 45.2916 48.4597L47.1364 44.7384C47.275 44.4604 47.5486 44.2737 47.8586 44.2462Z" fill="#1E2A00"/>
</g>
<defs>
<filter id="filter0_d_1_112" x="0" y="0" width="86.7112" height="86.7111" filterUnits="userSpaceOnUse" color-interpolation-filters="sRGB">
<feFlood flood-opacity="0" result="BackgroundImageFix"/>
<feColorMatrix in="SourceAlpha" type="matrix" values="0 0 0 0 0 0 0 0 0 0 0 0 0 0 0 0 0 0 127 0" result="hardAlpha"/>
<feOffset dy="4"/>
<feGaussianBlur stdDeviation="9"/>
<feComposite in2="hardAlpha" operator="out"/>
<feColorMatrix type="matrix" values="0 0 0 0 0 0 0 0 0 0 0 0 0 0 0 0 0 0 0.19 0"/>
<feBlend mode="normal" in2="BackgroundImageFix" result="effect1_dropShadow_1_112"/>
<feBlend mode="normal" in="SourceGraphic" in2="effect1_dropShadow_1_112" result="shape"/>
</filter>
<radialGradient id="paint0_radial_1_112" cx="0" cy="0" r="1" gradientUnits="userSpaceOnUse" gradientTransform="translate(40.4268 49.2312) rotate(132.769) scale(34.012)">
<stop stop-color="white" stop-opacity="0"/>
<stop offset="1" stop-color="white"/>
</radialGradient>
</defs>
</svg>
