<svg width="19" height="16" viewBox="0 0 19 16" fill="none" xmlns="http://www.w3.org/2000/svg">
<path d="M18.6685 1.38769C18.6685 1.11015 18.6685 0.901999 18.5991 0.693845C18.5991 0.485692 18.5297 0.346922 18.3909 0.208153C18.1828 0.0693843 17.8359 0 17.6971 0C17.0726 0 16.1012 0.346922 11.3137 2.35907C9.64849 3.05292 6.31803 4.50999 1.25296 6.66091C0.489731 7.00783 0.00403921 7.35476 0.00403921 7.63229C-0.0653453 8.25675 0.767269 8.39552 1.87742 8.74245C2.71003 9.01998 3.88957 9.36691 4.51403 9.36691C5.06911 9.43629 5.69357 9.15875 6.38741 8.74245C11.1056 5.55076 13.534 3.95492 13.6728 3.88553C13.7422 3.88553 13.8809 3.88553 14.0197 3.95492C14.0891 4.0243 14.0891 4.23245 14.0891 4.23245C14.0197 4.64876 9.5791 8.60368 9.37095 8.88122C8.39956 9.92198 7.28941 10.4771 8.95464 11.6566C10.4811 12.628 11.3137 13.1831 12.8402 14.2238C13.8116 14.8483 14.5748 15.6115 15.5462 15.4727C16.0319 15.4727 16.4482 15.0564 16.7257 13.7381C17.2808 10.6852 18.3909 4.09369 18.6685 1.38769Z" fill="black"/>
</svg>
