<svg width="15" height="13" viewBox="0 0 15 13" fill="none" xmlns="http://www.w3.org/2000/svg">
<path d="M13.7212 0.114768C13.7212 0.114768 15.1088 -0.447946 14.9932 0.918646C14.9546 1.48137 14.6077 3.45087 14.3379 5.58116L13.4128 11.8916C13.4128 11.8916 13.3358 12.8161 12.6419 12.9769C11.9481 13.1376 10.9074 12.4141 10.7147 12.2533C10.5605 12.1328 7.82386 10.324 6.86022 9.43978C6.5904 9.19861 6.28204 8.71627 6.89875 8.15356L10.946 4.13418C11.4085 3.65185 11.871 2.52642 9.94379 3.89301L4.54754 7.71145C4.54754 7.71145 3.93082 8.11337 2.7745 7.75164L0.269079 6.94775C0.269079 6.94775 -0.655997 6.34485 0.92434 5.74191C4.77882 3.85279 9.51983 1.92348 13.7212 0.114768Z" fill="#0B9BCB"/>
</svg>
