<svg width="87" height="87" viewBox="0 0 87 87" fill="none" xmlns="http://www.w3.org/2000/svg">
<g filter="url(#filter0_d_1_126)">
<rect x="15.5774" y="33.9165" width="39.9491" height="39.9491" rx="6.24205" transform="rotate(-34 15.5774 33.9165)" fill="#B8FF00"/>
<rect x="15.5774" y="33.9165" width="39.9491" height="39.9491" rx="6.24205" transform="rotate(-34 15.5774 33.9165)" fill="url(#paint0_radial_1_126)" fill-opacity="0.8"/>
</g>
<path d="M33.3762 36.3859C32.2902 37.1184 31.9859 38.5719 32.6977 39.6272L38.5047 48.2364C39.2164 49.2916 40.6781 49.554 41.7641 48.8215L53.5779 40.853C54.6639 40.1204 54.9681 38.667 54.2564 37.6117L50.3851 31.8722C49.6733 30.817 48.2117 30.5546 47.1256 31.2872L35.558 39.0896C35.1488 39.3656 34.6039 39.2678 34.3357 38.8702C34.0675 38.4727 34.181 37.9308 34.5901 37.6548L46.4039 29.6863C46.8131 29.4103 46.9265 28.8684 46.6584 28.4708C46.3902 28.0732 45.8453 27.9754 45.4361 28.2514L33.3762 36.3859ZM48.7221 35.7775C49.2666 35.4102 49.9949 35.541 50.3518 36.0701C50.7086 36.5992 50.557 37.3234 50.0125 37.6907C49.468 38.058 48.7397 37.9273 48.3828 37.3981C48.0259 36.869 48.1775 36.1448 48.7221 35.7775Z" fill="#1E2A00"/>
<defs>
<filter id="filter0_d_1_126" x="0" y="0" width="86.6133" height="86.6132" filterUnits="userSpaceOnUse" color-interpolation-filters="sRGB">
<feFlood flood-opacity="0" result="BackgroundImageFix"/>
<feColorMatrix in="SourceAlpha" type="matrix" values="0 0 0 0 0 0 0 0 0 0 0 0 0 0 0 0 0 0 127 0" result="hardAlpha"/>
<feOffset dy="4"/>
<feGaussianBlur stdDeviation="9"/>
<feComposite in2="hardAlpha" operator="out"/>
<feColorMatrix type="matrix" values="0 0 0 0 0 0 0 0 0 0 0 0 0 0 0 0 0 0 0.19 0"/>
<feBlend mode="normal" in2="BackgroundImageFix" result="effect1_dropShadow_1_126"/>
<feBlend mode="normal" in="SourceGraphic" in2="effect1_dropShadow_1_126" result="shape"/>
</filter>
<radialGradient id="paint0_radial_1_126" cx="0" cy="0" r="1" gradientUnits="userSpaceOnUse" gradientTransform="translate(40.4493 48.8014) rotate(132.769) scale(34.012)">
<stop stop-color="white" stop-opacity="0"/>
<stop offset="1" stop-color="white"/>
</radialGradient>
</defs>
</svg>
