<svg width="134" height="134" viewBox="0 0 134 134" fill="none" xmlns="http://www.w3.org/2000/svg">
<g filter="url(#filter0_d_1_807)">
<rect x="59.4402" y="8.86426" width="62.9642" height="62.9642" rx="9.83816" transform="rotate(24.6652 59.4402 8.86426)" fill="#B8FF00"/>
<rect x="59.4402" y="8.86426" width="62.9642" height="62.9642" rx="9.83816" transform="rotate(24.6652 59.4402 8.86426)" fill="url(#paint0_radial_1_807)" fill-opacity="0.8"/>
<path d="M81.6874 68.1758L78.4358 65.5444L75.8045 68.796C75.7148 68.9055 75.5949 68.986 75.4596 69.0275C75.3244 69.069 75.18 69.0697 75.0444 69.0294C74.9088 68.9892 74.7881 68.9098 74.6974 68.8012C74.6068 68.6926 74.5502 68.5597 74.5347 68.4191L73.5418 58.967C73.5233 58.7701 73.546 58.5715 73.6084 58.3839C73.6707 58.1962 73.7715 58.0236 73.9041 57.877C74.0368 57.7304 74.1985 57.613 74.3791 57.5323C74.5596 57.4515 74.7549 57.4092 74.9526 57.4081C75.7105 57.3898 76.4547 57.202 77.1305 56.8583C77.6283 56.6049 77.9221 56.92 78.3972 57.1315C79.0504 57.4236 79.7582 57.574 80.4737 57.5728C80.8363 57.563 81.1892 57.69 81.4624 57.9284C81.7356 58.1669 81.9091 58.4995 81.9484 58.86L82.8498 67.5425C82.8639 67.6831 82.8362 67.8247 82.7702 67.9496C82.7042 68.0745 82.6028 68.1772 82.4787 68.2448C82.3546 68.3124 82.2134 68.3419 82.0726 68.3296C81.9319 68.3173 81.7979 68.2638 81.6874 68.1758ZM70.9069 55.5945C70.4172 55.0229 70.0609 54.3494 69.8639 53.623C69.7244 53.0899 69.2883 53.076 68.8132 52.8644C68.1591 52.5744 67.5737 52.1491 67.0958 51.6165C66.8605 51.3406 66.53 51.1633 66.17 51.1198C65.8099 51.0764 65.4467 51.17 65.1525 51.382L58.097 56.5218C57.9831 56.6054 57.8964 56.7208 57.8477 56.8534C57.7991 56.9861 57.7906 57.1301 57.8234 57.2675C57.8562 57.405 57.9288 57.5297 58.0321 57.6261C58.1354 57.7224 58.2648 57.7862 58.4042 57.8094L62.5354 58.4651L61.8797 62.5963C61.8583 62.7362 61.8788 62.8792 61.9384 63.0074C61.998 63.1357 62.0942 63.2435 62.2148 63.3173C62.3355 63.3912 62.4752 63.4277 62.6166 63.4225C62.7579 63.4172 62.8946 63.3703 63.0094 63.2877L70.6981 57.7008C70.8561 57.5827 70.9879 57.4331 71.0852 57.2615C71.1824 57.0898 71.243 56.8998 71.263 56.7035C71.283 56.5073 71.2621 56.309 71.2015 56.1212C71.1409 55.9335 71.042 55.7603 70.9111 55.6128L70.9069 55.5945ZM71.25 53.2326C71.1535 52.8695 70.9674 52.5364 70.7088 52.2638C70.4502 51.9913 70.1274 51.788 69.7698 51.6726C69.2503 51.5036 68.7751 51.2208 68.3788 50.8448C67.9825 50.4688 67.6751 50.0091 67.4791 49.4992C67.2831 48.9893 67.2034 48.442 67.2458 47.8974C67.2882 47.3527 67.4516 46.8244 67.7242 46.351C67.9119 46.0263 68.0152 45.6597 68.0247 45.2848C68.0342 44.9098 67.9497 44.5385 67.7788 44.2047C67.5279 43.7176 67.3892 43.1805 67.3729 42.6329C67.3566 42.0852 67.4632 41.5409 67.6847 41.0398C67.9063 40.5387 68.2372 40.0935 68.6532 39.737C69.0692 39.3805 69.5597 39.1216 70.0889 38.9794C70.4513 38.883 70.7838 38.6973 71.0561 38.4394C71.3283 38.1814 71.5316 37.8594 71.6473 37.5026C71.8141 36.9772 72.0971 36.496 72.4753 36.095C72.8535 35.6939 73.3172 35.3831 73.832 35.1858C74.3467 34.9885 74.8993 34.9097 75.4487 34.9552C75.9981 35.0007 76.5302 35.1693 77.0054 35.4487C77.3305 35.6372 77.6976 35.7411 78.0732 35.7509C78.4487 35.7607 78.8208 35.6761 79.1552 35.5048C79.6433 35.2532 80.1816 35.1144 80.7305 35.0988C81.2794 35.0831 81.8248 35.1909 82.3265 35.4143C82.8281 35.6376 83.2732 35.9708 83.6289 36.3892C83.9845 36.8076 84.2416 37.3005 84.3812 37.8316C84.4777 38.1947 84.6638 38.5278 84.9224 38.8004C85.181 39.0729 85.5038 39.2762 85.8614 39.3916C86.3833 39.5599 86.8609 39.8431 87.2591 40.2202C87.6572 40.5974 87.9658 41.059 88.1621 41.5711C88.3584 42.0831 88.4374 42.6327 88.3934 43.1794C88.3494 43.726 88.1835 44.2559 87.9078 44.7299C87.7186 45.0574 87.6153 45.4273 87.6073 45.8054C87.5994 46.1835 87.6871 46.5575 87.8623 46.8926C88.1131 47.3808 88.2513 47.9191 88.2666 48.4677C88.282 49.0164 88.174 49.5615 87.9507 50.063C87.7275 50.5644 87.3946 51.0094 86.9766 51.3652C86.5586 51.7209 86.0662 51.9784 85.5355 52.1187C85.173 52.215 84.8405 52.4007 84.5682 52.6586C84.296 52.9166 84.0927 53.2386 83.977 53.5954C83.8076 54.1177 83.5232 54.5954 83.1446 54.9933C82.7661 55.3911 82.3031 55.6989 81.7898 55.8941C81.2765 56.0892 80.726 56.1667 80.1788 56.1208C79.6316 56.0749 79.1016 55.9067 78.628 55.6288C78.303 55.4403 77.9359 55.3364 77.5603 55.3266C77.1847 55.3168 76.8127 55.4014 76.4783 55.5727C75.9904 55.8237 75.4525 55.962 74.9041 55.9774C74.3557 55.9928 73.8108 55.885 73.3096 55.6619C72.8084 55.4387 72.3637 55.106 72.0082 54.6881C71.6527 54.2702 71.3956 53.7779 71.2556 53.2474L71.25 53.2326ZM75.8529 49.9496C76.7249 50.3379 77.6925 50.4588 78.6333 50.2972C79.5741 50.1355 80.4458 49.6985 81.1383 49.0414C81.8307 48.3843 82.3127 47.5367 82.5234 46.6056C82.7341 45.6746 82.6639 44.702 82.3218 43.8108C81.9798 42.9196 81.3811 42.1499 80.6015 41.599C79.822 41.0481 78.8966 40.7407 77.9423 40.7157C76.9881 40.6907 76.0478 40.9492 75.2405 41.4586C74.4332 41.968 73.7951 42.7053 73.4068 43.5774C72.8872 44.7469 72.8529 46.0748 73.3115 47.2695C73.7702 48.4643 74.6842 49.4282 75.8529 49.9496Z" fill="#1E2A00"/>
</g>
<defs>
<filter id="filter0_d_1_807" x="-8.39233e-05" y="-0.000133514" width="133.824" height="133.824" filterUnits="userSpaceOnUse" color-interpolation-filters="sRGB">
<feFlood flood-opacity="0" result="BackgroundImageFix"/>
<feColorMatrix in="SourceAlpha" type="matrix" values="0 0 0 0 0 0 0 0 0 0 0 0 0 0 0 0 0 0 127 0" result="hardAlpha"/>
<feOffset dx="-8" dy="16.3"/>
<feGaussianBlur stdDeviation="14.185"/>
<feComposite in2="hardAlpha" operator="out"/>
<feColorMatrix type="matrix" values="0 0 0 0 0.189011 0 0 0 0 0.23922 0 0 0 0 0.0586415 0 0 0 0.24 0"/>
<feBlend mode="normal" in2="BackgroundImageFix" result="effect1_dropShadow_1_807"/>
<feBlend mode="normal" in="SourceGraphic" in2="effect1_dropShadow_1_807" result="shape"/>
</filter>
<radialGradient id="paint0_radial_1_807" cx="0" cy="0" r="1" gradientUnits="userSpaceOnUse" gradientTransform="translate(98.641 32.3245) rotate(132.769) scale(53.6067)">
<stop stop-color="white" stop-opacity="0"/>
<stop offset="1" stop-color="white"/>
</radialGradient>
</defs>
</svg>
