<svg width="134" height="134" viewBox="0 0 134 134" fill="none" xmlns="http://www.w3.org/2000/svg">
<g filter="url(#filter0_d_1_498)">
<rect x="59.4404" y="8.86426" width="62.9642" height="62.9642" rx="9.83816" transform="rotate(24.6652 59.4404 8.86426)" fill="#B8FF00"/>
<rect x="59.4404" y="8.86426" width="62.9642" height="62.9642" rx="9.83816" transform="rotate(24.6652 59.4404 8.86426)" fill="url(#paint0_radial_1_498)" fill-opacity="0.8"/>
<path d="M65.762 55.6906C65.2954 56.0052 64.6687 56.0199 64.2781 55.9439C63.6302 55.786 63.0339 55.5858 62.4402 55.746C62.2554 55.7942 62.0738 55.6154 62.1194 55.4399C62.2682 54.8858 62.6591 54.3745 63.062 54.1294C62.9531 54.0809 62.8591 54.0716 62.7259 54.0777C62.4988 54.0744 62.3809 53.8261 62.493 53.6474C62.9233 53.1208 63.6839 52.5128 64.4682 52.4375L63.7879 50.6654C61.5777 50.2037 59.2572 52.0432 58.0933 53.4839C57.7782 53.8985 58.0837 54.459 58.6044 54.4622C58.8708 54.4503 59.1131 54.4928 59.3583 54.602C58.4495 55.1768 57.5009 56.3539 57.173 57.6771C57.0728 58.1221 57.4784 58.5313 57.9265 58.4043C59.3379 58.0207 60.7092 58.5333 62.2201 58.8794C63.3525 59.1224 65.4147 58.9633 66.5026 57.6195C66.4301 57.4893 66.3696 57.3317 66.3091 57.1743L65.762 55.6906Z" fill="#1E2A00"/>
<path d="M81.9837 55.1107C88.1325 52.2987 92.1276 46.1119 92.9162 44.0473C93.0133 43.8293 92.9892 43.5902 92.9136 43.3933C92.838 43.1963 92.6838 43.0297 92.4779 42.9055C90.5103 41.899 83.4138 39.9472 76.9506 41.999L75.7221 40.7992C74.3542 39.472 72.3104 39.1498 70.6113 39.9602L66.7038 41.8441C66.1555 42.1224 66.0279 42.8489 66.4606 43.2702L69.1962 45.9246C67.6421 46.9954 66.4454 47.997 65.7122 48.6173C65.2122 49.0804 65.0301 49.7826 65.2598 50.4399L67.6479 56.6611C67.8898 57.2912 68.5102 57.7307 69.2036 57.7128C70.1908 57.6953 71.7503 57.6389 73.5945 57.3827L73.3378 61.1858C73.2981 61.7884 73.8669 62.2701 74.4727 62.0827L78.6098 60.856C80.4148 60.3211 81.718 58.7141 81.8464 56.8127L81.9837 55.1107ZM81.8381 50.6715C80.3418 51.2458 78.7072 50.5181 78.1328 49.0218C77.5585 47.5255 78.2862 45.8909 79.7825 45.3165C81.2789 44.7421 82.9134 45.4699 83.4878 46.9662C84.0622 48.4625 83.3223 50.1244 81.8381 50.6715Z" fill="#1E2A00"/>
</g>
<defs>
<filter id="filter0_d_1_498" x="0.000160217" y="-0.000133514" width="133.824" height="133.824" filterUnits="userSpaceOnUse" color-interpolation-filters="sRGB">
<feFlood flood-opacity="0" result="BackgroundImageFix"/>
<feColorMatrix in="SourceAlpha" type="matrix" values="0 0 0 0 0 0 0 0 0 0 0 0 0 0 0 0 0 0 127 0" result="hardAlpha"/>
<feOffset dx="-8" dy="16.3"/>
<feGaussianBlur stdDeviation="14.185"/>
<feComposite in2="hardAlpha" operator="out"/>
<feColorMatrix type="matrix" values="0 0 0 0 0.189011 0 0 0 0 0.23922 0 0 0 0 0.0586415 0 0 0 0.24 0"/>
<feBlend mode="normal" in2="BackgroundImageFix" result="effect1_dropShadow_1_498"/>
<feBlend mode="normal" in="SourceGraphic" in2="effect1_dropShadow_1_498" result="shape"/>
</filter>
<radialGradient id="paint0_radial_1_498" cx="0" cy="0" r="1" gradientUnits="userSpaceOnUse" gradientTransform="translate(98.6412 32.3245) rotate(132.769) scale(53.6067)">
<stop stop-color="white" stop-opacity="0"/>
<stop offset="1" stop-color="white"/>
</radialGradient>
</defs>
</svg>
