<svg width="135" height="135" viewBox="0 0 135 135" fill="none" xmlns="http://www.w3.org/2000/svg">
<g filter="url(#filter0_d_1_812)">
<rect x="33.1011" y="35.8359" width="62.9642" height="62.9642" rx="9.83816" transform="rotate(-25.4276 33.1011 35.8359)" fill="#B8FF00"/>
<rect x="33.1011" y="35.8359" width="62.9642" height="62.9642" rx="9.83816" transform="rotate(-25.4276 33.1011 35.8359)" fill="url(#paint0_radial_1_812)" fill-opacity="0.8"/>
<path d="M90.4547 45.2743C90.9299 46.2245 90.7508 47.3265 89.9977 48.0823L84.023 54.0854L84.9674 62.4686C85.0864 63.5123 84.5546 64.4816 83.6078 64.9434L83.5861 64.9539C82.6252 65.4109 81.5261 65.2169 80.7851 64.4599L67.361 50.7433C66.716 50.0834 66.5012 49.1316 66.7986 48.2583C67.0994 47.3783 67.86 46.7511 68.7847 46.6216L87.9337 43.9539C88.9898 43.8055 89.9795 44.324 90.4547 45.2743ZM59.7207 44.4806C59.0908 44.2671 58.4064 44.6043 58.1942 45.2335C57.9807 45.8634 58.3179 46.5478 58.9477 46.7613L61.9227 47.7699C62.2359 47.8766 62.5613 47.8469 62.8372 47.7123C63.1158 47.5764 63.3424 47.3336 63.4491 47.017C63.6626 46.3871 63.3261 45.7041 62.6963 45.4906L59.7207 44.4806ZM65.9467 44.2317C66.5446 43.9401 66.7926 43.2197 66.501 42.6219L65.1302 39.8113C64.8386 39.2134 64.1182 38.9654 63.5204 39.257C62.9226 39.5485 62.6745 40.2689 62.9661 40.8668L64.3369 43.6774C64.6285 44.2752 65.3489 44.5233 65.9467 44.2317ZM70.4539 43.4147C70.7285 43.2808 70.9536 43.0421 71.0623 42.7295L72.0991 39.7643C72.3187 39.1365 71.9875 38.4508 71.3597 38.2312C70.7313 38.0103 70.0449 38.3434 69.8267 38.9706L68.7899 41.9358C68.5704 42.5636 68.9015 43.2493 69.5293 43.4689C69.8445 43.5797 70.1752 43.5506 70.4539 43.4147ZM63.6586 50.7557C63.367 50.1579 62.6467 49.9098 62.0488 50.2014L59.2125 51.5848C58.6147 51.8764 58.3666 52.5967 58.6582 53.1946C58.9498 53.7924 59.6702 54.0405 60.268 53.7489L63.1043 52.3655C63.7022 52.0739 63.9502 51.3536 63.6586 50.7557ZM64.4821 54.2636L63.446 57.2302C63.2265 57.8579 63.5582 58.545 64.1854 58.7632C64.502 58.8734 64.8314 58.845 65.11 58.7091C65.3859 58.5745 65.6097 58.3364 65.7184 58.0239L66.7545 55.0573C66.9741 54.4295 66.643 53.7438 66.0152 53.5242C65.3868 53.3033 64.6997 53.6351 64.4821 54.2636Z" fill="#1E2A00"/>
</g>
<defs>
<filter id="filter0_d_1_812" x="-8.39233e-05" y="-0.000133514" width="134.102" height="134.102" filterUnits="userSpaceOnUse" color-interpolation-filters="sRGB">
<feFlood flood-opacity="0" result="BackgroundImageFix"/>
<feColorMatrix in="SourceAlpha" type="matrix" values="0 0 0 0 0 0 0 0 0 0 0 0 0 0 0 0 0 0 127 0" result="hardAlpha"/>
<feOffset dx="-8" dy="16.3"/>
<feGaussianBlur stdDeviation="14.185"/>
<feComposite in2="hardAlpha" operator="out"/>
<feColorMatrix type="matrix" values="0 0 0 0 0.189011 0 0 0 0 0.23922 0 0 0 0 0.0586415 0 0 0 0.24 0"/>
<feBlend mode="normal" in2="BackgroundImageFix" result="effect1_dropShadow_1_812"/>
<feBlend mode="normal" in="SourceGraphic" in2="effect1_dropShadow_1_812" result="shape"/>
</filter>
<radialGradient id="paint0_radial_1_812" cx="0" cy="0" r="1" gradientUnits="userSpaceOnUse" gradientTransform="translate(72.3019 59.2962) rotate(132.769) scale(53.6067)">
<stop stop-color="white" stop-opacity="0"/>
<stop offset="1" stop-color="white"/>
</radialGradient>
</defs>
</svg>
