<svg width="134" height="134" viewBox="0 0 134 134" fill="none" xmlns="http://www.w3.org/2000/svg">
<g filter="url(#filter0_d_1_492)">
<rect x="59.4402" y="8.86426" width="62.9642" height="62.9642" rx="9.83816" transform="rotate(24.6652 59.4402 8.86426)" fill="#B8FF00"/>
<rect x="59.4402" y="8.86426" width="62.9642" height="62.9642" rx="9.83816" transform="rotate(24.6652 59.4402 8.86426)" fill="url(#paint0_radial_1_492)" fill-opacity="0.8"/>
<path d="M74.834 34.8894L73.4918 37.9041C73.2217 38.5107 73.4934 39.2183 74.1 39.4884C74.7066 39.7585 75.4143 39.4868 75.6843 38.8803L77.0266 35.8656C77.2966 35.259 77.025 34.5513 76.4184 34.2812C75.8118 34.0111 75.1041 34.2828 74.834 34.8894Z" fill="#1E2A00"/>
<path d="M85.0659 39.4449L83.7237 42.4596C83.4536 43.0662 83.7253 43.7739 84.3319 44.044C84.9385 44.314 85.6461 44.0424 85.9162 43.4358L87.2584 40.4211C87.5285 39.8145 87.2569 39.1068 86.6503 38.8367C86.0437 38.5667 85.336 38.8383 85.0659 39.4449Z" fill="#1E2A00"/>
<path d="M63.136 62.2264L74.7746 67.4082C78.6224 69.1214 83.1325 67.3902 84.8473 63.5387L90.0275 51.9037C91.2754 49.101 90.6861 45.94 88.784 43.7708C88.3915 43.3246 87.6612 43.4504 87.4188 43.9949C86.877 45.2118 85.5732 45.9667 84.2717 45.6938C82.4586 45.3112 81.5529 43.4018 82.2639 41.8049L82.5633 41.1325C82.7487 40.7159 82.5602 40.2248 82.1436 40.0393L78.5406 38.4352C78.124 38.2497 77.6329 38.4382 77.4474 38.8548L77.1871 39.4395C76.6079 40.7404 75.1603 41.4839 73.7972 41.074C72.1474 40.5803 71.3537 38.7732 72.0322 37.2494L72.0712 37.1617C72.3136 36.6173 71.9201 35.9867 71.3243 35.9973C68.4395 36.0352 65.6977 37.7087 64.4483 40.5151L59.2664 52.1537C57.5533 56.0015 59.2845 60.5116 63.136 62.2264ZM81.3293 51.2799L81.8774 51.5239C82.484 51.794 82.7556 52.5017 82.4856 53.1083C82.2155 53.7149 81.5078 53.9865 80.9012 53.7165L80.3531 53.4724C79.7465 53.2023 79.4748 52.4947 79.7449 51.8881C80.015 51.2815 80.7227 51.0098 81.3293 51.2799ZM78.8888 56.7612L79.437 57.0052C80.0436 57.2753 80.3152 57.983 80.0451 58.5896C79.7751 59.1961 79.0674 59.4678 78.4608 59.1977L77.9127 58.9537C77.3061 58.6836 77.0344 57.9759 77.3045 57.3693C77.5746 56.7628 78.2822 56.4911 78.8888 56.7612ZM75.742 48.7923L76.3194 49.0494C76.926 49.3194 77.1976 50.0271 76.9275 50.6337C76.6575 51.2403 75.9498 51.5119 75.3432 51.2419L74.7658 50.9848C74.1593 50.7147 73.8876 50.0071 74.1577 49.4005C74.4277 48.7939 75.1354 48.5222 75.742 48.7923ZM73.3016 54.2736L73.879 54.5306C74.4855 54.8007 74.7572 55.5084 74.4871 56.115C74.2171 56.7216 73.5094 56.9932 72.9028 56.7231L72.3254 56.4661C71.7188 56.196 71.4472 55.4883 71.7173 54.8817C71.9873 54.2751 72.695 54.0035 73.3016 54.2736ZM70.184 46.3177L70.7321 46.5618C71.3387 46.8318 71.6104 47.5395 71.3403 48.1461C71.0702 48.7527 70.3626 49.0243 69.756 48.7543L69.2078 48.5102C68.6012 48.2401 68.3296 47.5325 68.5997 46.9259C68.8697 46.3193 69.5774 46.0476 70.184 46.3177ZM67.7436 51.799L68.2917 52.043C68.8983 52.3131 69.17 53.0208 68.8999 53.6274C68.6298 54.234 67.9221 54.5056 67.3155 54.2355L66.7674 53.9915C66.1608 53.7214 65.8892 53.0137 66.1592 52.4072C66.4293 51.8006 67.137 51.5289 67.7436 51.799Z" fill="#1E2A00"/>
</g>
<defs>
<filter id="filter0_d_1_492" x="-8.39233e-05" y="-0.000133514" width="133.824" height="133.824" filterUnits="userSpaceOnUse" color-interpolation-filters="sRGB">
<feFlood flood-opacity="0" result="BackgroundImageFix"/>
<feColorMatrix in="SourceAlpha" type="matrix" values="0 0 0 0 0 0 0 0 0 0 0 0 0 0 0 0 0 0 127 0" result="hardAlpha"/>
<feOffset dx="-8" dy="16.3"/>
<feGaussianBlur stdDeviation="14.185"/>
<feComposite in2="hardAlpha" operator="out"/>
<feColorMatrix type="matrix" values="0 0 0 0 0.189011 0 0 0 0 0.23922 0 0 0 0 0.0586415 0 0 0 0.24 0"/>
<feBlend mode="normal" in2="BackgroundImageFix" result="effect1_dropShadow_1_492"/>
<feBlend mode="normal" in="SourceGraphic" in2="effect1_dropShadow_1_492" result="shape"/>
</filter>
<radialGradient id="paint0_radial_1_492" cx="0" cy="0" r="1" gradientUnits="userSpaceOnUse" gradientTransform="translate(98.641 32.3245) rotate(132.769) scale(53.6067)">
<stop stop-color="white" stop-opacity="0"/>
<stop offset="1" stop-color="white"/>
</radialGradient>
</defs>
</svg>
