<svg width="133" height="133" viewBox="0 0 133 133" fill="none" xmlns="http://www.w3.org/2000/svg">
<g filter="url(#filter0_d_1_505)">
<rect x="57.3145" y="9.07031" width="62.9642" height="62.9642" rx="9.83816" transform="rotate(22.351 57.3145 9.07031)" fill="#B8FF00"/>
<rect x="57.3145" y="9.07031" width="62.9642" height="62.9642" rx="9.83816" transform="rotate(22.351 57.3145 9.07031)" fill="url(#paint0_radial_1_505)" fill-opacity="0.8"/>
<path fill-rule="evenodd" clip-rule="evenodd" d="M82.7893 39.3838C85.6272 41.7624 86.7622 45.8145 85.3357 49.3451C83.6597 53.4935 83.3298 56.8512 84.9418 60.9933C85.8004 63.1883 84.1145 65.074 82.0844 64.2538L61.254 55.8377C59.2239 55.0175 59.321 52.49 61.4634 51.5074C65.5004 49.6476 67.5955 47.0032 69.2716 42.8548C70.698 39.3242 74.3293 37.1978 78.0231 37.4581C78.5223 36.2224 80.0094 35.5911 81.3334 36.126C82.6574 36.661 83.2886 38.1481 82.7893 39.3838Z" fill="#1E2A00"/>
<path fill-rule="evenodd" clip-rule="evenodd" d="M75.9024 62.7827C74.5526 64.5988 72.0928 65.3504 69.8862 64.4589C67.6795 63.5674 66.4322 61.318 66.7229 59.0739L75.9024 62.7827Z" fill="#1E2A00"/>
</g>
<defs>
<filter id="filter0_d_1_505" x="0.000160217" y="-0.000133514" width="132.919" height="132.919" filterUnits="userSpaceOnUse" color-interpolation-filters="sRGB">
<feFlood flood-opacity="0" result="BackgroundImageFix"/>
<feColorMatrix in="SourceAlpha" type="matrix" values="0 0 0 0 0 0 0 0 0 0 0 0 0 0 0 0 0 0 127 0" result="hardAlpha"/>
<feOffset dx="-8" dy="16.3"/>
<feGaussianBlur stdDeviation="14.185"/>
<feComposite in2="hardAlpha" operator="out"/>
<feColorMatrix type="matrix" values="0 0 0 0 0.189011 0 0 0 0 0.23922 0 0 0 0 0.0586415 0 0 0 0.24 0"/>
<feBlend mode="normal" in2="BackgroundImageFix" result="effect1_dropShadow_1_505"/>
<feBlend mode="normal" in="SourceGraphic" in2="effect1_dropShadow_1_505" result="shape"/>
</filter>
<radialGradient id="paint0_radial_1_505" cx="0" cy="0" r="1" gradientUnits="userSpaceOnUse" gradientTransform="translate(96.5153 32.5306) rotate(132.769) scale(53.6067)">
<stop stop-color="white" stop-opacity="0"/>
<stop offset="1" stop-color="white"/>
</radialGradient>
</defs>
</svg>
