<svg width="134" height="134" viewBox="0 0 134 134" fill="none" xmlns="http://www.w3.org/2000/svg">
<g filter="url(#filter0_d_1_488)">
<rect x="59.4402" y="8.86426" width="62.9642" height="62.9642" rx="9.83816" transform="rotate(24.6652 59.4402 8.86426)" fill="#B8FF00"/>
<rect x="59.4402" y="8.86426" width="62.9642" height="62.9642" rx="9.83816" transform="rotate(24.6652 59.4402 8.86426)" fill="url(#paint0_radial_1_488)" fill-opacity="0.8"/>
<path d="M83.5635 49.0047C83.0244 47.9208 82.5465 46.8039 82.2635 45.6271C80.6541 38.9333 84.5026 35.6304 84.5026 35.6304C76.0632 35.4483 72.3349 39.4635 70.6876 42.9564L70.6747 42.9955C70.6747 42.9955 69.8093 45.112 69.751 47.7994C69.7326 48.6569 68.8742 49.2475 68.0488 49.0145C67.4741 48.8525 67.0787 48.3321 67.0713 47.735C67.0578 46.6674 67.1463 45.0185 67.7437 44.0936C65.8807 45.1245 64.2754 46.6877 63.1829 48.7302C60.4894 53.767 61.9834 60.1357 66.6376 63.4473C72.092 67.3287 79.597 65.7472 83.0581 60.1436C85.2202 56.6433 85.2705 52.4361 83.5635 49.0047Z" fill="#1E2A00"/>
</g>
<defs>
<filter id="filter0_d_1_488" x="-8.39233e-05" y="-0.000133514" width="133.824" height="133.824" filterUnits="userSpaceOnUse" color-interpolation-filters="sRGB">
<feFlood flood-opacity="0" result="BackgroundImageFix"/>
<feColorMatrix in="SourceAlpha" type="matrix" values="0 0 0 0 0 0 0 0 0 0 0 0 0 0 0 0 0 0 127 0" result="hardAlpha"/>
<feOffset dx="-8" dy="16.3"/>
<feGaussianBlur stdDeviation="14.185"/>
<feComposite in2="hardAlpha" operator="out"/>
<feColorMatrix type="matrix" values="0 0 0 0 0.189011 0 0 0 0 0.23922 0 0 0 0 0.0586415 0 0 0 0.24 0"/>
<feBlend mode="normal" in2="BackgroundImageFix" result="effect1_dropShadow_1_488"/>
<feBlend mode="normal" in="SourceGraphic" in2="effect1_dropShadow_1_488" result="shape"/>
</filter>
<radialGradient id="paint0_radial_1_488" cx="0" cy="0" r="1" gradientUnits="userSpaceOnUse" gradientTransform="translate(98.641 32.3245) rotate(132.769) scale(53.6067)">
<stop stop-color="white" stop-opacity="0"/>
<stop offset="1" stop-color="white"/>
</radialGradient>
</defs>
</svg>
