<svg width="134" height="134" viewBox="0 0 134 134" fill="none" xmlns="http://www.w3.org/2000/svg">
<g filter="url(#filter0_d_1_495)">
<rect x="59.4402" y="8.86426" width="62.9642" height="62.9642" rx="9.83816" transform="rotate(24.6652 59.4402 8.86426)" fill="#B8FF00"/>
<rect x="59.4402" y="8.86426" width="62.9642" height="62.9642" rx="9.83816" transform="rotate(24.6652 59.4402 8.86426)" fill="url(#paint0_radial_1_495)" fill-opacity="0.8"/>
<path fill-rule="evenodd" clip-rule="evenodd" d="M93.0296 45.403L67.6488 33.7478C67.2892 33.5827 66.8605 33.7336 66.7008 34.0814L59.3734 50.0379L86.0656 62.2953L93.3949 46.3382C93.5541 45.9916 93.3878 45.5675 93.0296 45.403ZM86.1742 64.6031L56.1191 50.8014C55.6404 51.8437 55.0428 52.6936 55.3931 53.5958C55.5508 54.0006 55.8633 54.3509 56.2935 54.5485L84.6529 67.5715C85.5119 67.966 86.5317 67.6071 86.9133 66.776L87.6087 65.2618L86.1742 64.6031Z" fill="#1E2A00"/>
</g>
<defs>
<filter id="filter0_d_1_495" x="-8.39233e-05" y="-0.000133514" width="133.824" height="133.824" filterUnits="userSpaceOnUse" color-interpolation-filters="sRGB">
<feFlood flood-opacity="0" result="BackgroundImageFix"/>
<feColorMatrix in="SourceAlpha" type="matrix" values="0 0 0 0 0 0 0 0 0 0 0 0 0 0 0 0 0 0 127 0" result="hardAlpha"/>
<feOffset dx="-8" dy="16.3"/>
<feGaussianBlur stdDeviation="14.185"/>
<feComposite in2="hardAlpha" operator="out"/>
<feColorMatrix type="matrix" values="0 0 0 0 0.189011 0 0 0 0 0.23922 0 0 0 0 0.0586415 0 0 0 0.24 0"/>
<feBlend mode="normal" in2="BackgroundImageFix" result="effect1_dropShadow_1_495"/>
<feBlend mode="normal" in="SourceGraphic" in2="effect1_dropShadow_1_495" result="shape"/>
</filter>
<radialGradient id="paint0_radial_1_495" cx="0" cy="0" r="1" gradientUnits="userSpaceOnUse" gradientTransform="translate(98.641 32.3245) rotate(132.769) scale(53.6067)">
<stop stop-color="white" stop-opacity="0"/>
<stop offset="1" stop-color="white"/>
</radialGradient>
</defs>
</svg>
