<svg width="132" height="132" viewBox="0 0 132 132" fill="none" xmlns="http://www.w3.org/2000/svg">
<g filter="url(#filter0_d_1_484)">
<rect x="33.7668" y="29.373" width="62.9642" height="62.9642" rx="9.83816" transform="rotate(-18.4302 33.7668 29.373)" fill="#B8FF00"/>
<rect x="33.7668" y="29.373" width="62.9642" height="62.9642" rx="9.83816" transform="rotate(-18.4302 33.7668 29.373)" fill="url(#paint0_radial_1_484)" fill-opacity="0.8"/>
<path d="M66.7782 40.2472L69.828 42.9478L65.6927 44.2914C65.3884 44.4276 65.0588 44.4983 64.7253 44.4988C64.3919 44.4992 64.0621 44.4296 63.7574 44.2942C63.4526 44.1589 63.1798 43.961 62.9565 43.7133C62.7333 43.4656 62.5647 43.1737 62.4616 42.8566C62.3586 42.5395 62.3234 42.2042 62.3585 41.8726C62.3935 41.541 62.4979 41.2205 62.6649 40.9319C62.8319 40.6433 63.0577 40.3931 63.3278 40.1975C63.5978 40.0019 63.906 39.8653 64.2323 39.7966L64.3543 39.757C64.7659 39.6199 65.2063 39.5931 65.6316 39.6791C66.0568 39.7651 66.4521 39.961 66.7782 40.2472ZM59.9947 43.6439C60.2537 44.4301 60.697 45.1429 61.2878 45.7227L58.9184 46.4926C58.4398 46.648 58.0426 46.9873 57.8142 47.4356C57.5858 47.8839 57.5448 48.4046 57.7003 48.8832L58.8749 52.4983C58.9519 52.7353 59.0748 52.9547 59.2366 53.1442C59.3984 53.3336 59.596 53.4894 59.818 53.6025C60.0399 53.7156 60.282 53.7839 60.5304 53.8034C60.7788 53.823 61.0286 53.7934 61.2655 53.7164L86.5522 45.5003C87.0307 45.3448 87.4279 45.0056 87.6564 44.5572C87.8848 44.1089 87.9258 43.5882 87.7703 43.1096L86.5957 39.4945C86.4402 39.016 86.1009 38.6188 85.6526 38.3903C85.2043 38.1619 84.6836 38.1209 84.205 38.2764L81.8356 39.0463C81.9766 38.1651 81.8892 37.2625 81.5819 36.4247C81.2746 35.5868 80.7576 34.8418 80.0803 34.2608C79.403 33.6797 78.588 33.282 77.7132 33.1057C76.8384 32.9294 75.933 32.9804 75.0835 33.2537L74.9936 33.2829C74.1079 33.5706 73.3126 34.0844 72.6862 34.7735C72.0597 35.4626 71.6239 36.3031 71.4216 37.2122L70.7793 39.9765L68.6669 38.1072C67.9693 37.4901 67.1226 37.0659 66.2107 36.8766C65.2987 36.6873 64.3531 36.7395 63.4676 37.0279L63.3456 37.0676C62.0291 37.4953 60.9365 38.4285 60.3081 39.6618C59.6797 40.8951 59.567 42.3275 59.9947 43.6439ZM78.9565 37.4829C79.1513 38.0823 79.1 38.7346 78.8138 39.2962C78.5277 39.8578 78.0301 40.2828 77.4307 40.4775L73.2954 41.8212L74.1754 37.8437C74.2685 37.4121 74.475 37.013 74.7735 36.6877C75.0721 36.3623 75.452 36.1224 75.8741 35.9927L75.9961 35.953C76.5916 35.7688 77.2356 35.826 77.7893 36.1121C78.3431 36.3983 78.7623 36.8906 78.9565 37.4829ZM61.8518 55.5207L65.0794 65.4543C65.3129 66.173 65.8224 66.7695 66.4957 67.1125C67.169 67.4556 67.9509 67.5171 68.6696 67.2836L76.7988 64.6423L72.6908 51.999L61.8518 55.5207ZM80.4076 63.4697L88.5368 60.8284C89.2555 60.5949 89.8519 60.0855 90.195 59.4122C90.538 58.7389 90.5996 57.9569 90.3661 57.2382L87.1385 47.3046L76.2995 50.8264L80.4076 63.4697Z" fill="#1E2A00"/>
</g>
<defs>
<filter id="filter0_d_1_484" x="-8.39233e-05" y="-0.000133514" width="131.175" height="131.175" filterUnits="userSpaceOnUse" color-interpolation-filters="sRGB">
<feFlood flood-opacity="0" result="BackgroundImageFix"/>
<feColorMatrix in="SourceAlpha" type="matrix" values="0 0 0 0 0 0 0 0 0 0 0 0 0 0 0 0 0 0 127 0" result="hardAlpha"/>
<feOffset dx="-8" dy="16.3"/>
<feGaussianBlur stdDeviation="14.185"/>
<feComposite in2="hardAlpha" operator="out"/>
<feColorMatrix type="matrix" values="0 0 0 0 0.189011 0 0 0 0 0.23922 0 0 0 0 0.0586415 0 0 0 0.24 0"/>
<feBlend mode="normal" in2="BackgroundImageFix" result="effect1_dropShadow_1_484"/>
<feBlend mode="normal" in="SourceGraphic" in2="effect1_dropShadow_1_484" result="shape"/>
</filter>
<radialGradient id="paint0_radial_1_484" cx="0" cy="0" r="1" gradientUnits="userSpaceOnUse" gradientTransform="translate(72.9677 52.8333) rotate(132.769) scale(53.6067)">
<stop stop-color="white" stop-opacity="0"/>
<stop offset="1" stop-color="white"/>
</radialGradient>
</defs>
</svg>
